<svg xmlns="http://www.w3.org/2000/svg" width="520" height="1200" style ="fill:none;"><style>.svg_txt{font-size:20px;}.glyph{stroke:#000000;stroke-width:1;stroke:1;}</style><rect x="0" y="0" width="40" height="40" style="fill:rgb(215, 206, 203);stroke:rgb(20,20,20);stroke-width:1;"/><path class='glyph' d='M4 4L16 16' transform='translate(0 0) scale(2.0)'/><rect x="40" y="0" width="400" height="40" style="fill:rgb(255,255,255);stroke:black;stroke-width:1;"/><text x = "60.0" y = "20.0" fill="black">453</text><rect x="440" y="0" width="80" height="40" style="fill:rgb(255,255,255);stroke:black;stroke-width:1;"/><text x = "460.0" y = "20.0" fill="black">Shell Gray Light</text><rect x="0" y="40" width="40" height="40" style="fill:rgb(196, 205, 172);stroke:rgb(20,20,20);stroke-width:1;"/><path class='glyph' d='M4 16L16 4M4 10L 16 10' transform='translate(0 40) scale(2.0)'/><rect x="40" y="40" width="400" height="40" style="fill:rgb(255,255,255);stroke:black;stroke-width:1;"/><text x = "60.0" y = "60.0" fill="black">524</text><rect x="440" y="40" width="80" height="40" style="fill:rgb(255,255,255);stroke:black;stroke-width:1;"/><text x = "460.0" y = "60.0" fill="black">Fern Green Vy Lt</text><rect x="0" y="80" width="40" height="40" style="fill:rgb(189, 203, 203);stroke:rgb(20,20,20);stroke-width:1;"/><path class='glyph' d='M7 7L7 13 13 13 13 7Z' fill='black' transform='translate(0 80) scale(2.0)'/><rect x="40" y="80" width="400" height="40" style="fill:rgb(255,255,255);stroke:black;stroke-width:1;"/><text x = "60.0" y = "100.0" fill="black">927</text><rect x="440" y="80" width="80" height="40" style="fill:rgb(255,255,255);stroke:black;stroke-width:1;"/><text x = "460.0" y = "100.0" fill="black">Gray Green Light</text><rect x="0" y="120" width="40" height="40" style="fill:rgb(210, 188, 166);stroke:rgb(20,20,20);stroke-width:1;"/><path class='glyph' d='M4 4L10 16L16 4 Z' transform='translate(0 120) scale(2.0)'/><rect x="40" y="120" width="400" height="40" style="fill:rgb(255,255,255);stroke:black;stroke-width:1;"/><text x = "60.0" y = "140.0" fill="black">3782</text><rect x="440" y="120" width="80" height="40" style="fill:rgb(255,255,255);stroke:black;stroke-width:1;"/><text x = "460.0" y = "140.0" fill="black">Mocha Brown Lt</text><rect x="0" y="160" width="40" height="40" style="fill:rgb(188, 179, 76);stroke:rgb(20,20,20);stroke-width:1;"/><path class='glyph' d='M4 4L16 16M4 16 L16 4' transform='translate(0 160) scale(2.0)'/><rect x="40" y="160" width="400" height="40" style="fill:rgb(255,255,255);stroke:black;stroke-width:1;"/><text x = "60.0" y = "180.0" fill="black">733</text><rect x="440" y="160" width="80" height="40" style="fill:rgb(255,255,255);stroke:black;stroke-width:1;"/><text x = "460.0" y = "180.0" fill="black">Olive Green Md</text><rect x="0" y="200" width="40" height="40" style="fill:rgb(203, 182, 156);stroke:rgb(20,20,20);stroke-width:1;"/><path class='glyph' d='M4 4L4 16 16 16 16 4Z' transform='translate(0 200) scale(2.0)'/><rect x="40" y="200" width="400" height="40" style="fill:rgb(255,255,255);stroke:black;stroke-width:1;"/><text x = "60.0" y = "220.0" fill="black">3864</text><rect x="440" y="200" width="80" height="40" style="fill:rgb(255,255,255);stroke:black;stroke-width:1;"/><text x = "460.0" y = "220.0" fill="black">Mocha Beige Light</text><rect x="0" y="240" width="40" height="40" style="fill:rgb(185, 185, 130);stroke:rgb(20,20,20);stroke-width:1;"/><path class='glyph' d='M4 4L10 16L16 4 Z' fill='black' transform='translate(0 240) scale(2.0)'/><rect x="40" y="240" width="400" height="40" style="fill:rgb(255,255,255);stroke:black;stroke-width:1;"/><text x = "60.0" y = "260.0" fill="black">3013</text><rect x="440" y="240" width="80" height="40" style="fill:rgb(255,255,255);stroke:black;stroke-width:1;"/><text x = "460.0" y = "260.0" fill="black">Khaki Green Lt</text><rect x="0" y="280" width="40" height="40" style="fill:rgb(188, 180, 172);stroke:rgb(20,20,20);stroke-width:1;"/><path class='glyph' d='M10 4L6 10 10 16 14 10Z' fill='black' transform='translate(0 280) scale(2.0)'/><rect x="40" y="280" width="400" height="40" style="fill:rgb(255,255,255);stroke:black;stroke-width:1;"/><text x = "60.0" y = "300.0" fill="black">648</text><rect x="440" y="280" width="80" height="40" style="fill:rgb(255,255,255);stroke:black;stroke-width:1;"/><text x = "460.0" y = "300.0" fill="black">Beaver Gray Lt</text><rect x="0" y="320" width="40" height="40" style="fill:rgb(192, 179, 174);stroke:rgb(20,20,20);stroke-width:1;"/><path class='glyph' d='M8 8L8 12 12 12 12 8Z' transform='translate(0 320) scale(2.0)'/><rect x="40" y="320" width="400" height="40" style="fill:rgb(255,255,255);stroke:black;stroke-width:1;"/><text x = "60.0" y = "340.0" fill="black">452</text><rect x="440" y="320" width="80" height="40" style="fill:rgb(255,255,255);stroke:black;stroke-width:1;"/><text x = "460.0" y = "340.0" fill="black">Shell Gray Med</text><rect x="0" y="360" width="40" height="40" style="fill:rgb(171, 171, 171);stroke:rgb(20,20,20);stroke-width:1;"/><path class='glyph' d='M4 4L16 16M4 16 L16 4M10 4L10 16M4 10L16 10' transform='translate(0 360) scale(2.0)'/><rect x="40" y="360" width="400" height="40" style="fill:rgb(255,255,255);stroke:black;stroke-width:1;"/><text x = "60.0" y = "380.0" fill="black">318</text><rect x="440" y="360" width="80" height="40" style="fill:rgb(255,255,255);stroke:black;stroke-width:1;"/><text x = "460.0" y = "380.0" fill="black">Steel Gray Lt</text><rect x="0" y="400" width="40" height="40" style="fill:rgb(185, 185, 130);stroke:rgb(20,20,20);stroke-width:1;"/><path class='glyph' d='M4 4L4 16 16 16 16 4Z' fill='black' transform='translate(0 400) scale(2.0)'/><rect x="40" y="400" width="400" height="40" style="fill:rgb(255,255,255);stroke:black;stroke-width:1;"/><text x = "60.0" y = "420.0" fill="black">3013</text><rect x="440" y="400" width="80" height="40" style="fill:rgb(255,255,255);stroke:black;stroke-width:1;"/><text x = "460.0" y = "420.0" fill="black">Khaki Green Lt</text><rect x="0" y="440" width="40" height="40" style="fill:rgb(177, 170, 151);stroke:rgb(20,20,20);stroke-width:1;"/><rect x="40" y="440" width="400" height="40" style="fill:rgb(255,255,255);stroke:black;stroke-width:1;"/><text x = "60.0" y = "460.0" fill="black">3023</text><rect x="440" y="440" width="80" height="40" style="fill:rgb(255,255,255);stroke:black;stroke-width:1;"/><text x = "460.0" y = "460.0" fill="black">Brown Gray Light</text><rect x="0" y="480" width="40" height="40" style="fill:rgb(176, 166, 156);stroke:rgb(20,20,20);stroke-width:1;"/><rect x="40" y="480" width="400" height="40" style="fill:rgb(255,255,255);stroke:black;stroke-width:1;"/><text x = "60.0" y = "500.0" fill="black">647</text><rect x="440" y="480" width="80" height="40" style="fill:rgb(255,255,255);stroke:black;stroke-width:1;"/><text x = "460.0" y = "500.0" fill="black">Beaver Gray Med</text><rect x="0" y="520" width="40" height="40" style="fill:rgb(179, 159, 139);stroke:rgb(20,20,20);stroke-width:1;"/><rect x="40" y="520" width="400" height="40" style="fill:rgb(255,255,255);stroke:black;stroke-width:1;"/><text x = "60.0" y = "540.0" fill="black">3032</text><rect x="440" y="520" width="80" height="40" style="fill:rgb(255,255,255);stroke:black;stroke-width:1;"/><text x = "460.0" y = "540.0" fill="black">Mocha Brown Med</text><rect x="0" y="560" width="40" height="40" style="fill:rgb(189, 155, 81);stroke:rgb(20,20,20);stroke-width:1;"/><rect x="40" y="560" width="400" height="40" style="fill:rgb(255,255,255);stroke:black;stroke-width:1;"/><text x = "60.0" y = "580.0" fill="black">832</text><rect x="440" y="560" width="80" height="40" style="fill:rgb(255,255,255);stroke:black;stroke-width:1;"/><text x = "460.0" y = "580.0" fill="black">Golden Olive</text><rect x="0" y="600" width="40" height="40" style="fill:rgb(156, 164, 130);stroke:rgb(20,20,20);stroke-width:1;"/><rect x="40" y="600" width="400" height="40" style="fill:rgb(255,255,255);stroke:black;stroke-width:1;"/><text x = "60.0" y = "620.0" fill="black">3053</text><rect x="440" y="600" width="80" height="40" style="fill:rgb(255,255,255);stroke:black;stroke-width:1;"/><text x = "460.0" y = "620.0" fill="black">Green Gray</text><rect x="0" y="640" width="40" height="40" style="fill:rgb(164, 152, 120);stroke:rgb(20,20,20);stroke-width:1;"/><rect x="40" y="640" width="400" height="40" style="fill:rgb(255,255,255);stroke:black;stroke-width:1;"/><text x = "60.0" y = "660.0" fill="black">642</text><rect x="440" y="640" width="80" height="40" style="fill:rgb(255,255,255);stroke:black;stroke-width:1;"/><text x = "460.0" y = "660.0" fill="black">Beige Gray Dark</text><rect x="0" y="680" width="40" height="40" style="fill:rgb(142, 144, 120);stroke:rgb(20,20,20);stroke-width:1;"/><rect x="40" y="680" width="400" height="40" style="fill:rgb(255,255,255);stroke:black;stroke-width:1;"/><text x = "60.0" y = "700.0" fill="black">3022</text><rect x="440" y="680" width="80" height="40" style="fill:rgb(255,255,255);stroke:black;stroke-width:1;"/><text x = "460.0" y = "700.0" fill="black">Brown Gray Med</text><rect x="0" y="720" width="40" height="40" style="fill:rgb(140, 140, 140);stroke:rgb(20,20,20);stroke-width:1;"/><rect x="40" y="720" width="400" height="40" style="fill:rgb(255,255,255);stroke:black;stroke-width:1;"/><text x = "60.0" y = "740.0" fill="black">414</text><rect x="440" y="720" width="80" height="40" style="fill:rgb(255,255,255);stroke:black;stroke-width:1;"/><text x = "460.0" y = "740.0" fill="black">Steel Gray Dk</text><rect x="0" y="760" width="40" height="40" style="fill:rgb(132, 132, 132);stroke:rgb(20,20,20);stroke-width:1;"/><rect x="40" y="760" width="400" height="40" style="fill:rgb(255,255,255);stroke:black;stroke-width:1;"/><text x = "60.0" y = "780.0" fill="black">169</text><rect x="440" y="760" width="80" height="40" style="fill:rgb(255,255,255);stroke:black;stroke-width:1;"/><text x = "460.0" y = "780.0" fill="black">Pewter Light</text><rect x="0" y="800" width="40" height="40" style="fill:rgb(150, 118, 86);stroke:rgb(20,20,20);stroke-width:1;"/><rect x="40" y="800" width="400" height="40" style="fill:rgb(255,255,255);stroke:black;stroke-width:1;"/><text x = "60.0" y = "820.0" fill="black">611</text><rect x="440" y="800" width="80" height="40" style="fill:rgb(255,255,255);stroke:black;stroke-width:1;"/><text x = "460.0" y = "820.0" fill="black">Drab Brown</text><rect x="0" y="840" width="40" height="40" style="fill:rgb(135, 125, 115);stroke:rgb(20,20,20);stroke-width:1;"/><rect x="40" y="840" width="400" height="40" style="fill:rgb(255,255,255);stroke:black;stroke-width:1;"/><text x = "60.0" y = "860.0" fill="black">646</text><rect x="440" y="840" width="80" height="40" style="fill:rgb(255,255,255);stroke:black;stroke-width:1;"/><text x = "460.0" y = "860.0" fill="black">Beaver Gray Dk</text><rect x="0" y="880" width="40" height="40" style="fill:rgb(101, 127, 127);stroke:rgb(20,20,20);stroke-width:1;"/><rect x="40" y="880" width="400" height="40" style="fill:rgb(255,255,255);stroke:black;stroke-width:1;"/><text x = "60.0" y = "900.0" fill="black">3768</text><rect x="440" y="880" width="80" height="40" style="fill:rgb(255,255,255);stroke:black;stroke-width:1;"/><text x = "460.0" y = "900.0" fill="black">Gray Green Dark</text><rect x="0" y="920" width="40" height="40" style="fill:rgb(108, 108, 108);stroke:rgb(20,20,20);stroke-width:1;"/><rect x="40" y="920" width="400" height="40" style="fill:rgb(255,255,255);stroke:black;stroke-width:1;"/><text x = "60.0" y = "940.0" fill="black">317</text><rect x="440" y="920" width="80" height="40" style="fill:rgb(255,255,255);stroke:black;stroke-width:1;"/><text x = "460.0" y = "940.0" fill="black">Pewter Gray</text><rect x="0" y="960" width="40" height="40" style="fill:rgb(133, 123, 97);stroke:rgb(20,20,20);stroke-width:1;"/><rect x="40" y="960" width="400" height="40" style="fill:rgb(255,255,255);stroke:black;stroke-width:1;"/><text x = "60.0" y = "980.0" fill="black">640</text><rect x="440" y="960" width="80" height="40" style="fill:rgb(255,255,255);stroke:black;stroke-width:1;"/><text x = "460.0" y = "980.0" fill="black">Beige Gray Vy Dk</text><rect x="0" y="1000" width="40" height="40" style="fill:rgb(110, 101, 92);stroke:rgb(20,20,20);stroke-width:1;"/><rect x="40" y="1000" width="400" height="40" style="fill:rgb(255,255,255);stroke:black;stroke-width:1;"/><text x = "60.0" y = "1020.0" fill="black">645</text><rect x="440" y="1000" width="80" height="40" style="fill:rgb(255,255,255);stroke:black;stroke-width:1;"/><text x = "460.0" y = "1020.0" fill="black">Beaver Gray Vy Dk</text><rect x="0" y="1040" width="40" height="40" style="fill:rgb(99, 100, 88);stroke:rgb(20,20,20);stroke-width:1;"/><rect x="40" y="1040" width="400" height="40" style="fill:rgb(255,255,255);stroke:black;stroke-width:1;"/><text x = "60.0" y = "1060.0" fill="black">535</text><rect x="440" y="1040" width="80" height="40" style="fill:rgb(255,255,255);stroke:black;stroke-width:1;"/><text x = "460.0" y = "1060.0" fill="black">Ash Gray Vy Lt</text><rect x="0" y="1080" width="40" height="40" style="fill:rgb(98, 93, 80);stroke:rgb(20,20,20);stroke-width:1;"/><rect x="40" y="1080" width="400" height="40" style="fill:rgb(255,255,255);stroke:black;stroke-width:1;"/><text x = "60.0" y = "1100.0" fill="black">3787</text><rect x="440" y="1080" width="80" height="40" style="fill:rgb(255,255,255);stroke:black;stroke-width:1;"/><text x = "460.0" y = "1100.0" fill="black">Brown Gray Dark</text><rect x="0" y="1120" width="40" height="40" style="fill:rgb(79, 75, 65);stroke:rgb(20,20,20);stroke-width:1;"/><rect x="40" y="1120" width="400" height="40" style="fill:rgb(255,255,255);stroke:black;stroke-width:1;"/><text x = "60.0" y = "1140.0" fill="black">3021</text><rect x="440" y="1120" width="80" height="40" style="fill:rgb(255,255,255);stroke:black;stroke-width:1;"/><text x = "460.0" y = "1140.0" fill="black">Brown Gray Vy Dk</text><rect x="0" y="1160" width="40" height="40" style="fill:rgb(75, 60, 42);stroke:rgb(20,20,20);stroke-width:1;"/><rect x="40" y="1160" width="400" height="40" style="fill:rgb(255,255,255);stroke:black;stroke-width:1;"/><text x = "60.0" y = "1180.0" fill="black">3031</text><rect x="440" y="1160" width="80" height="40" style="fill:rgb(255,255,255);stroke:black;stroke-width:1;"/><text x = "460.0" y = "1180.0" fill="black">Mocha Brown Vy Dk</text></svg>